<?xml version="1.0" encoding="UTF-8" standalone="no"?>
<!-- Created with Inkscape (http://www.inkscape.org/) -->

<svg
   width="260"
   height="260"
   viewBox="0 0 68.791669 68.791669"
   version="1.1"
   id="svg1"
   sodipodi:docname="Nguyen Cao Long Khanh + Nguyen Duc Bao Nam - 10A1.svg"
   inkscape:version="1.3.2 (091e20ef0f, 2023-11-25, custom)"
   xmlns:inkscape="http://www.inkscape.org/namespaces/inkscape"
   xmlns:sodipodi="http://sodipodi.sourceforge.net/DTD/sodipodi-0.dtd"
   xmlns:xlink="http://www.w3.org/1999/xlink"
   xmlns="http://www.w3.org/2000/svg"
   xmlns:svg="http://www.w3.org/2000/svg">
  <sodipodi:namedview
     id="namedview1"
     pagecolor="#505050"
     bordercolor="#eeeeee"
     borderopacity="1"
     inkscape:showpageshadow="0"
     inkscape:pageopacity="0"
     inkscape:pagecheckerboard="0"
     inkscape:deskcolor="#505050"
     inkscape:document-units="mm"
     inkscape:zoom="1.4142136"
     inkscape:cx="272.23611"
     inkscape:cy="215.66757"
     inkscape:window-width="1920"
     inkscape:window-height="1080"
     inkscape:window-x="0"
     inkscape:window-y="0"
     inkscape:window-maximized="0"
     inkscape:current-layer="layer1"
     showguides="true" />
  <defs
     id="defs1">
    <inkscape:path-effect
       effect="spiro"
       id="path-effect95"
       is_visible="true"
       lpeversion="1" />
    <linearGradient
       id="linearGradient93"
       inkscape:collect="always">
      <stop
         style="stop-color:#ff8488;stop-opacity:1;"
         offset="0"
         id="stop93" />
      <stop
         style="stop-color:#ffbe5c;stop-opacity:1;"
         offset="1"
         id="stop94" />
    </linearGradient>
    <inkscape:path-effect
       effect="bspline"
       id="path-effect55"
       is_visible="true"
       lpeversion="1.3"
       weight="33.333333"
       steps="2"
       helper_size="0"
       apply_no_weight="true"
       apply_with_weight="true"
       only_selected="false"
       uniform="false" />
    <radialGradient
       inkscape:collect="always"
       xlink:href="#linearGradient93"
       id="radialGradient18"
       gradientUnits="userSpaceOnUse"
       gradientTransform="matrix(0.99999516,0,0,1,-0.10335101,-0.10335285)"
       cx="33.866665"
       cy="32.032158"
       fx="33.866665"
       fy="32.032158"
       r="19.84375" />
  </defs>
  <g
     inkscape:label="Layer 1"
     inkscape:groupmode="layer"
     id="layer1">
    <g
       id="draft"
       style="display:none">
      <circle
         style="display:none;fill:#f0fff0;fill-opacity:1;stroke:#008200;stroke-width:1;stroke-dasharray:none;stroke-opacity:1"
         id="circle11"
         cx="34.366665"
         cy="34.366665"
         r="33.866665" />
      <g
         id="g41"
         transform="translate(-72.518164,-31.329582)">
        <rect
           style="fill:#ffffff;fill-opacity:1;stroke:none;stroke-width:1.04928;stroke-dasharray:none;stroke-opacity:1"
           id="rect29"
           width="30"
           height="2"
           x="-34.546795"
           y="-61.237736" />
        <rect
           style="fill:#ffffff;fill-opacity:1;stroke:none;stroke-width:1.48391;stroke-dasharray:none;stroke-opacity:1"
           id="rect30"
           width="60"
           height="2"
           x="-19.547001"
           y="-38.237999" />
        <rect
           style="fill:#ffffff;fill-opacity:1;stroke:none;stroke-width:1.04928;stroke-dasharray:none;stroke-opacity:1"
           id="rect31"
           width="30"
           height="2"
           x="25.452999"
           y="-61.237736" />
        <rect
           style="fill:#ffffff;fill-opacity:1;stroke:none;stroke-width:1.09181;stroke-dasharray:none;stroke-opacity:1"
           id="rect32"
           width="1"
           height="25"
           x="-19.547001"
           y="-61.237999" />
        <rect
           style="fill:#ffffff;fill-opacity:1;stroke:none;stroke-width:1.09181;stroke-dasharray:none;stroke-opacity:1"
           id="rect33"
           width="1"
           height="25"
           x="40.452999"
           y="-61.237999" />
        <rect
           style="fill:#ffffff;fill-opacity:1;stroke:none;stroke-width:1.09181;stroke-dasharray:none;stroke-opacity:1"
           id="rect34"
           width="1"
           height="25"
           x="-4.5469999"
           y="-61.237999" />
        <rect
           style="fill:#ffffff;fill-opacity:1;stroke:none;stroke-width:1.09181;stroke-dasharray:none;stroke-opacity:1"
           id="rect35"
           width="1"
           height="25"
           x="25.452999"
           y="-61.237999" />
        <rect
           style="fill:#ffffff;fill-opacity:1;stroke:none;stroke-width:1.50485;stroke-dasharray:none;stroke-opacity:1"
           id="rect36"
           width="1.8790836"
           height="27.420307"
           x="3.479739"
           y="-68.457504"
           transform="matrix(0.83517865,-0.54997874,0.54711837,0.83705525,0,0)" />
        <rect
           style="fill:#ffffff;fill-opacity:1;stroke:none;stroke-width:1.56309;stroke-dasharray:none;stroke-opacity:1"
           id="rect37"
           width="1.9505842"
           height="28.499378"
           x="28.507812"
           y="-53.027912"
           transform="matrix(0.8343819,-0.55118677,0.54591159,0.83784279,0,0)" />
        <rect
           style="fill:#ffffff;fill-opacity:1;stroke:none;stroke-width:1.50485;stroke-dasharray:none;stroke-opacity:1"
           id="rect38"
           width="1.8790836"
           height="27.420307"
           x="34.890114"
           y="-47.819633"
           transform="matrix(-0.83517865,-0.54997874,-0.54711837,0.83705525,0,0)" />
        <rect
           style="fill:#ffffff;fill-opacity:1;stroke:none;stroke-width:1.56309;stroke-dasharray:none;stroke-opacity:1"
           id="rect39"
           width="1.9505842"
           height="28.499378"
           x="10.190753"
           y="-65.077667"
           transform="matrix(-0.8343819,-0.55118677,-0.54591159,0.83784279,0,0)" />
        <rect
           style="fill:#ffffff;fill-opacity:1;stroke:none;stroke-width:1.47434;stroke-dasharray:none;stroke-opacity:1"
           id="rect40"
           width="1.8257312"
           height="27.088942"
           x="53.062912"
           y="-34.43927"
           transform="matrix(0.82437055,-0.56605052,0.53112332,0.84729453,0,0)" />
        <rect
           style="fill:#ffffff;fill-opacity:1;stroke:none;stroke-width:1.46181;stroke-dasharray:none;stroke-opacity:1"
           id="rect41"
           width="1.8037963"
           height="26.954325"
           x="-16.18191"
           y="-80.429314"
           transform="matrix(-0.81960158,-0.57293389,-0.52431218,0.85152612,0,0)" />
      </g>
    </g>
    <ellipse
       style="fill:#f0fff0;fill-opacity:1;stroke:#42b445;stroke-width:2;stroke-dasharray:none;stroke-opacity:1"
       id="ellipse1"
       cx="33.763153"
       cy="33.763317"
       rx="28.159126"
       ry="28.159264" />
    <ellipse
       style="fill:url(#radialGradient18);fill-opacity:1;stroke:none;stroke-width:2.55442;stroke-linejoin:miter;stroke-dasharray:none;stroke-opacity:1;paint-order:normal"
       id="ellipse2"
       cx="33.763153"
       cy="31.92881"
       rx="19.843655"
       ry="19.84375" />
    <path
       id="path2"
       style="fill:#004e12;fill-opacity:1;stroke:none;stroke-width:0.38244;stroke-linejoin:miter;stroke-dasharray:none;stroke-opacity:1;paint-order:normal"
       d="m 34.364956,23.091603 1.13496,0.674601 2.20264,0.358259 -1.13263,-0.899714 z m 3.3376,1.032863 2.2087,-0.317084 1.14713,-0.6533 -2.20684,0.09197 z" />
    <g
       id="g9"
       transform="matrix(0.68333895,0,0,0.74082299,51.368106,132.54711)"
       style="display:inline">
      <path
         id="path7"
         style="display:inline;fill:#004b00;fill-opacity:1;stroke:none;stroke-width:0.746672;stroke-dasharray:none;stroke-opacity:1"
         d="m 13.693282,21.166667 v 3.83e-4 H 3.4406609 v 1.481578 h 0.020831 L 3.4395833,22.664258 13.693265,39.6672 v 0.0203 H 54.7048 55.388284 v -0.202519 l 9.555713,-16.820714 -0.02083,-0.01563 h 0.03462 v -1.481585 h -9.569495 v -3.82e-4 h -0.683488 v 3.82e-4 h -9.569136 v -3.82e-4 h -0.683482 v 3.82e-4 0.04327 l -0.03886,-0.02793 -9.887389,16.447061 -9.88774,-16.447446 -0.0086,0.0063 v -0.02144 h -0.683542 v 3.81e-4 h -9.569449 v -3.81e-4 z m -8.7288217,1.481961 h 8.7288217 v 14.473923 z m 9.4123067,0 h 9.118072 l -9.118072,15.119385 z m 31.537068,0 h 8.790984 v 15.200164 z m 9.474469,0 h 8.119161 L 55.388304,36.94032 Z M 44.452202,23.764217 V 38.20598 h -8.681844 z m -19.822463,0.05053 8.651114,14.391229 h -8.651114 z m 20.505946,0.03254 8.304247,14.358688 h -8.304247 z m -21.18943,0.597245 v 13.761455 h -8.298948 z"
         transform="matrix(1.4633955,0,0,1.3498502,-75.323471,-179.05825)" />
      <path
         id="path8"
         style="fill:#d6a400;fill-opacity:1;stroke:none;stroke-width:1.04928;stroke-dasharray:none;stroke-opacity:1"
         d="m -11.236516,-150.48642 v 5.2e-4 0.0584 l -0.05685,-0.0377 -14.465266,22.20019 -0.0062,-0.009 v 2.78794 H 3.763599 4.763538 v -0.27337 l 13.980025,-22.70507 -0.03049,-0.0212 h 0.05064 v -1.99987 H 4.763534 v -5.2e-4 H 3.763595 v 5.2e-4 h -14.000179 v -5.2e-4 z m 2.138887,2.00039 H 3.763602 v 20.51813 z m 13.86117,0 H 16.641885 L 4.763541,-129.1947 Z m -16.000057,1.50689 v 19.49286 H -23.93755 Z m 0.999939,0.1111 12.149129,19.38176 h -12.149129 z"
         sodipodi:nodetypes="ccccccccccccccccccccccccccccccccccccc" />
      <path
         id="path9"
         style="fill:#00afff;fill-opacity:1;stroke:none;stroke-width:1.04928;stroke-dasharray:none;stroke-opacity:1"
         d="m -40.289771,-150.48642 v 5.2e-4 0.0584 l 0.05685,-0.0377 14.465266,22.20019 0.0062,-0.009 v 2.78794 h -29.528431 -0.999939 v -0.27337 l -13.980025,-22.70507 0.03049,-0.0212 H -70.29 v -1.99987 h 14.000179 v -5.2e-4 h 0.999939 v 5.2e-4 h 14.000179 v -5.2e-4 z m -2.138887,2.00039 h -12.861231 v 20.51813 z m -13.86117,0 h -11.878344 l 11.878344,19.29133 z m 16.000057,1.50689 v 19.49286 h 12.701034 z m -0.999939,0.1111 -12.149129,19.38176 h 12.149129 z"
         sodipodi:nodetypes="ccccccccccccccccccccccccccccccccccccc" />
    </g>
    <path
       d="m 35.431116,52.358221 c -0.007,0.02394 -0.0205,0.110189 -0.0273,0.191587 -0.007,0.08383 -0.0182,0.150882 -0.0227,0.150882 -0.005,0 -0.0364,-0.02874 -0.0705,-0.06225 -0.18639,-0.186794 -0.3978,-0.294575 -0.57737,-0.296972 -0.24095,0 -0.31823,0.09819 -0.17503,0.225122 0.0932,0.08384 0.19321,0.126944 0.44099,0.191587 l 0.20229,0.05508 -0.1,0.02632 c -0.0568,0.0144 -0.13185,0.05269 -0.16821,0.08384 l -0.0682,0.05748 0.0909,0.05988 c 0.19548,0.12933 0.35006,0.146085 0.51599,0.05749 l 0.10686,-0.05508 0.0568,0.09577 c 0.0296,0.05508 0.0523,0.100604 0.0478,0.105389 -0.002,0.0023 -0.0409,-0.005 -0.0841,-0.01665 -0.0864,-0.02632 -0.29323,-0.03114 -0.34778,-0.0095 -0.0591,0.02394 -0.0432,0.07185 0.0614,0.186795 0.10912,0.124529 0.25004,0.172437 0.42734,0.146084 0.0977,-0.0144 0.10682,-0.012 0.12046,0.04071 0.0182,0.07663 0.016,0.217934 -0.004,0.251468 -0.0136,0.0216 -0.0409,0.0144 -0.10685,-0.03352 -0.11819,-0.08384 -0.35461,-0.174824 -0.45917,-0.174824 -0.10229,0 -0.33188,0.06228 -0.44098,0.122144 -0.0864,0.04553 -0.30688,0.229914 -0.40462,0.337684 l -0.0568,0.06228 -0.05,-0.129329 c -0.0273,-0.07185 -0.0773,-0.167647 -0.11137,-0.213142 -0.13868,-0.193992 -0.48645,-0.409532 -0.81831,-0.507723 -0.14094,-0.0431 -0.58874,-0.126915 -0.60011,-0.112575 -0.007,0.005 0.016,0.04073 0.0477,0.07663 0.0637,0.07422 0.2205,0.316129 0.27505,0.423901 0.0182,0.04073 0.0386,0.110189 0.0432,0.155676 0.007,0.07664 0,0.08862 -0.0819,0.12933 -0.18639,0.09579 -0.86606,0.08622 -1.40024,-0.01913 -0.16821,-0.03352 -0.30687,-0.05749 -0.30914,-0.05508 -0.0138,0.012 0.15457,0.364029 0.22958,0.481379 0.25686,0.407139 0.74786,0.742428 1.30931,0.888517 l 0.15004,0.04073 -0.016,0.07422 c -0.0523,0.25147 -0.35234,0.54365 -0.93653,0.917258 -0.12276,0.07663 -0.22277,0.148469 -0.22277,0.155675 0,0.0072 0.0341,0.02394 0.075,0.03833 0.0386,0.0144 0.2205,0.08622 0.40007,0.158062 0.18184,0.07423 0.33642,0.129329 0.34551,0.124529 0.009,-0.0072 0.0227,-0.04073 0.0318,-0.07663 0.0205,-0.0934 0.0887,-0.189202 0.2705,-0.385583 l 0.15912,-0.172439 h 0.30686 c 0.61602,0 0.96153,-0.122144 1.27749,-0.455033 0.18412,-0.191587 0.29096,-0.409534 0.38416,-0.785534 0.0864,-0.349662 0.12046,-0.421511 0.27276,-0.579574 0.12047,-0.129329 0.32051,-0.239493 0.43417,-0.239493 0.0614,0 0.0955,0.08622 0.0841,0.220341 -0.009,0.09578 -0.007,0.11256 0.016,0.08622 0.0864,-0.09819 0.10458,-0.478982 0.0364,-0.77356 l -0.0364,-0.167645 0.0864,-0.13413 c 0.14322,-0.217933 0.13866,-0.416717 -0.0136,-0.52928 l -0.0682,-0.05029 -0.0432,0.05508 c -0.0227,0.03114 -0.0591,0.11736 -0.0819,0.193995 -0.0205,0.07903 -0.0455,0.141299 -0.0523,0.141299 -0.007,0 -0.0364,-0.05269 -0.0659,-0.119745 -0.0386,-0.08622 -0.0455,-0.126944 -0.0295,-0.148499 0.0136,-0.01687 0.0364,-0.07664 0.0523,-0.134129 0.0364,-0.143685 -0.002,-0.251467 -0.11819,-0.342474 -0.10683,-0.07902 -0.16594,-0.08861 -0.18866,-0.02873 z"
       id="path10"
       style="fill:#008200;fill-opacity:1;stroke:none;stroke-width:0.00233321" />
    <g
       id="g12"
       transform="matrix(0.99999516,0,0,1,-0.10335101,-0.10335282)">
      <path
         id="path11"
         style="display:inline;fill:#74db7c;fill-opacity:1;stroke:none;stroke-width:3.64827;stroke-linejoin:miter;stroke-dasharray:none;stroke-opacity:1;paint-order:normal"
         d="m 23.283333,55.68704 v 4.209562 A 28.159262,28.159262 0 0 0 33.866667,62.025671 28.159262,28.159262 0 0 0 44.45,59.896602 V 55.68704 a 30.28127,11.11097 0 0 0 -10.584367,2.181262 30.28127,11.11097 0 0 0 -10.5823,-2.181262 z" />
      <path
         id="path12"
         style="fill:#389634;fill-opacity:1;stroke:none;stroke-width:4.3263;stroke-linejoin:miter;stroke-dasharray:none;stroke-opacity:1;paint-order:normal"
         d="m 21.960417,56.820304 v 2.547132 a 28.159262,28.159262 0 0 0 11.90625,2.658235 28.159262,28.159262 0 0 0 11.90625,-2.658235 V 56.820304 A 34.06643,13.888712 0 0 0 33.865633,59.546753 34.06643,13.888712 0 0 0 21.960417,56.820304 Z" />
    </g>
    <path
       id="path13"
       style="fill:#d1ffcd;fill-opacity:1;stroke:#008200;stroke-width:0.79375;stroke-linejoin:miter;stroke-dasharray:none;stroke-opacity:1;paint-order:normal"
       d="M 34.263376,0.39687499 A 33.866501,33.866666 0 0 0 0.39687499,34.263543 33.866501,33.866666 0 0 0 34.263376,68.13021 33.866501,33.866666 0 0 0 68.129876,34.263543 33.866501,33.866666 0 0 0 34.263376,0.39687499 Z M 33.763156,5.6037926 A 28.159126,28.159263 0 0 1 61.922016,33.763315 28.159126,28.159263 0 0 1 33.763156,61.92232 28.159126,28.159263 0 0 1 5.603766,33.763315 28.159126,28.159263 0 0 1 33.763156,5.6037926 Z" />
    <g
       id="g17"
       style="display:inline"
       transform="matrix(0.99999516,0,0,1,-0.10335101,-0.10335282)">
      <path
         id="path14"
         style="fill:#008200;fill-opacity:1;stroke:none;stroke-width:0.529167;stroke-dasharray:none;stroke-opacity:1"
         d="m 1.4472285,41.168319 v 0.787549 a 33.866665,33.866665 0 0 0 4.156335,10.221081 H 63.129771 a 33.866665,33.866665 0 0 0 4.3279,-11.00863 z" />
      <text
         xml:space="preserve"
         style="font-size:8.77045px;font-family:Monospace;-inkscape-font-specification:Monospace;display:inline;fill:#319b32;fill-opacity:1;stroke:none;stroke-width:0.0264583;stroke-dasharray:none;stroke-opacity:1"
         x="15.972945"
         y="49.874821"
         id="text15"><tspan
           sodipodi:role="line"
           id="tspan14"
           style="font-style:normal;font-variant:normal;font-weight:normal;font-stretch:normal;font-family:C059;-inkscape-font-specification:C059;fill:#319b32;fill-opacity:1;stroke:none;stroke-width:0.0264583;stroke-dasharray:none;stroke-opacity:1"
           x="15.972945"
           y="49.874821">THPT VL</tspan><tspan
           sodipodi:role="line"
           style="font-style:normal;font-variant:normal;font-weight:normal;font-stretch:normal;font-family:Hack;-inkscape-font-specification:Hack;fill:#319b32;fill-opacity:1;stroke:none;stroke-width:0.0264583;stroke-dasharray:none;stroke-opacity:1"
           x="15.972945"
           y="61.257771"
           id="tspan15" /></text>
      <text
         xml:space="preserve"
         style="font-size:8.77045px;font-family:Monospace;-inkscape-font-specification:Monospace;fill:#e6ffe6;fill-opacity:1;stroke:none;stroke-width:0.0264583;stroke-dasharray:none;stroke-opacity:1"
         x="15.460789"
         y="49.874821"
         id="text17"><tspan
           sodipodi:role="line"
           id="tspan16"
           style="font-style:normal;font-variant:normal;font-weight:normal;font-stretch:normal;font-family:C059;-inkscape-font-specification:C059;fill:#e6ffe6;fill-opacity:1;stroke:none;stroke-width:0.0264583;stroke-dasharray:none;stroke-opacity:1"
           x="15.460789"
           y="49.874821">THPT VL</tspan><tspan
           sodipodi:role="line"
           style="font-style:normal;font-variant:normal;font-weight:normal;font-stretch:normal;font-family:Hack;-inkscape-font-specification:Hack;fill:#e6ffe6;fill-opacity:1;stroke:none;stroke-width:0.0264583;stroke-dasharray:none;stroke-opacity:1"
           x="15.460789"
           y="61.257771"
           id="tspan17" /></text>
    </g>
    <g
       id="g18"
       transform="matrix(1.0211449,0,0,1,-0.17439301,-0.34071599)">
      <path
         id="path17"
         style="display:none;fill:#f0fff0;stroke:#42b445;stroke-width:2"
         d="M 28.407071,6.2417332 A 28.159262,28.159262 0 0 1 61.491597,28.407071 28.159262,28.159262 0 0 1 39.326259,61.491597 28.159262,28.159262 0 0 1 6.2417332,39.32626 28.159262,28.159262 0 0 1 28.407071,6.2417332 Z" />
      <text
         xml:space="preserve"
         style="font-style:normal;font-variant:normal;font-weight:normal;font-stretch:normal;font-size:4.23333px;font-family:C059;-inkscape-font-specification:C059;fill:#008200;fill-opacity:1;stroke:none;stroke-width:2.0083;stroke-linejoin:miter;stroke-dasharray:none;stroke-opacity:1;paint-order:normal"
         id="text18"
         transform="translate(0,-1.0238767)"
         x="28.40707"
         y="6.2417331">1959</text>
    </g>
    <path
       id="path18"
       style="fill:#008612;fill-opacity:1;stroke:none;stroke-width:0.485217;stroke-linejoin:miter;stroke-dasharray:none;stroke-opacity:1;paint-order:normal"
       d="m 28.153716,20.547133 1.43997,0.855895 2.79458,0.454538 -1.43702,-1.141505 z m 4.23455,1.310436 2.80226,-0.402298 1.45542,-0.828867 -2.79991,0.116685 z" />
    <path
       id="path19"
       style="fill:#00b012;fill-opacity:1;stroke:none;stroke-width:0.622449;stroke-linejoin:miter;stroke-dasharray:none;stroke-opacity:1;paint-order:normal"
       d="m 24.588176,17.607915 1.84723,1.097964 3.58496,0.583093 -1.84345,-1.464352 z m 5.43219,1.681061 3.59481,-0.516078 1.86705,-1.063293 -3.59179,0.149687 z" />
    <path
       id="path20"
       style="fill:#00d612;fill-opacity:1;stroke:none;stroke-width:0.836634;stroke-linejoin:miter;stroke-dasharray:none;stroke-opacity:1;paint-order:normal"
       d="m 31.016196,13.688692 2.23772,1.637447 4.34278,0.869595 -2.23313,-2.183859 z m 6.5805,2.507048 4.35472,-0.769652 2.26173,-1.58574 -4.35106,0.223235 z" />
  </g>
</svg>
